# xmcd
#
# Track frame offsets: 
#        150
#        17978
#        37517
#        51816
#        68860
#        89773
#        104254
#        122724
#        141350
#        161760
#        181371
#        198987
#        218322
#        239483
#
# Disc length: 3479 seconds
#
# Revision: 2
# Processed by: cddbd v1.5.1PL2 Copyright (c) Steve Scherf et al.
# Submitted via: ExactAudioCopy v0.95a4
#
DISCID=c20d950e
DTITLE=Sil Simone - Take Me Home Country Road [Avalon]
DYEAR=2002
DGENRE=Instrumental
TTITLE0=Take Me Home, Country Roads
TTITLE1=Carolina In My Mind
TTITLE2=Born Country
TTITLE3=Blue Skies
TTITLE4=My Tennessee Mountain Home
TTITLE5=Homeward Bound
TTITLE6=Crazy
TTITLE7=Blue Bayou
TTITLE8=Dixieland Delight
TTITLE9=Green, Green, Grass Of Home
TTITLE10=Rocky Top
TTITLE11=Georgia On My Mind
TTITLE12=Back Home Again
TTITLE13=The Tennessee Waltz
EXTD=
EXTT0=
EXTT1=
EXTT2=
EXTT3=
EXTT4=
EXTT5=
EXTT6=
EXTT7=
EXTT8=
EXTT9=
EXTT10=
EXTT11=
EXTT12=
EXTT13=
PLAYORDER=
